<svg xmlns="http://www.w3.org/2000/svg" width="29" height="31" viewBox="0 0 29 31">
  <metadata><?xpacket begin="﻿" id="W5M0MpCehiHzreSzNTczkc9d"?>
<x:xmpmeta xmlns:x="adobe:ns:meta/" x:xmptk="Adobe XMP Core 5.6-c138 79.159824, 2016/09/14-01:09:01        ">
   <rdf:RDF xmlns:rdf="http://www.w3.org/1999/02/22-rdf-syntax-ns#">
      <rdf:Description rdf:about=""/>
   </rdf:RDF>
</x:xmpmeta>
                                                                                                    
                                                                                                    
                                                                                                    
                                                                                                    
                                                                                                    
                                                                                                    
                                                                                                    
                                                                                                    
                                                                                                    
                                                                                                    
                                                                                                    
                                                                                                    
                                                                                                    
                                                                                                    
                                                                                                    
                                                                                                    
                                                                                                    
                                                                                                    
                                                                                                    
                                                                                                    
                           
<?xpacket end="w"?></metadata>
<defs>
    <style>
      .cls-1 {
        fill: #fff;
        fill-rule: evenodd;
      }
    </style>
  </defs>
  <path id="ico-date" class="cls-1" d="M453.854,765.91h-1.177v-2.041a0.873,0.873,0,0,0-1.745,0v2.041H440.027v-2.041a0.873,0.873,0,0,0-1.745,0v2.041H437.1A6.111,6.111,0,0,0,431,771.989v15.937a6.11,6.11,0,0,0,6.106,6.079H453.9a6.111,6.111,0,0,0,6.107-6.079V771.989A6.149,6.149,0,0,0,453.854,765.91Zm0,26.358H437.1a4.365,4.365,0,0,1-4.362-4.342V775.9H458.26v12.029A4.432,4.432,0,0,1,453.854,792.268Zm4.362-18.107H432.742v-2.172a4.365,4.365,0,0,1,4.362-4.342h1.178v2.041a0.873,0.873,0,0,0,1.745,0v-2.041h10.905v2.041a0.873,0.873,0,0,0,1.745,0v-2.041h1.177a4.365,4.365,0,0,1,4.362,4.342v2.172Zm-5.365,11.29H438.108a0.869,0.869,0,1,0,0,1.737h14.7a0.874,0.874,0,0,0,.873-0.869A0.836,0.836,0,0,0,452.851,785.451Zm-12.257-3.17h9.814a0.869,0.869,0,1,0,0-1.737h-9.814A0.869,0.869,0,1,0,440.594,782.281Z" transform="translate(-431 -763)"/>
</svg>
