<svg xmlns="http://www.w3.org/2000/svg" width="21" height="35" viewBox="0 0 21 35">
  <metadata><?xpacket begin="﻿" id="W5M0MpCehiHzreSzNTczkc9d"?>
<x:xmpmeta xmlns:x="adobe:ns:meta/" x:xmptk="Adobe XMP Core 5.6-c138 79.159824, 2016/09/14-01:09:01        ">
   <rdf:RDF xmlns:rdf="http://www.w3.org/1999/02/22-rdf-syntax-ns#">
      <rdf:Description rdf:about=""/>
   </rdf:RDF>
</x:xmpmeta>
                                                                                                    
                                                                                                    
                                                                                                    
                                                                                                    
                                                                                                    
                                                                                                    
                                                                                                    
                                                                                                    
                                                                                                    
                                                                                                    
                                                                                                    
                                                                                                    
                                                                                                    
                                                                                                    
                                                                                                    
                                                                                                    
                                                                                                    
                                                                                                    
                                                                                                    
                                                                                                    
                           
<?xpacket end="w"?></metadata>
<defs>
    <style>
      .cls-1 {
        fill: #fff;
        fill-rule: evenodd;
      }
    </style>
  </defs>
  <path id="Forme_1692" data-name="Forme 1692" class="cls-1" d="M1208.28,762a4.335,4.335,0,0,0-4.28,4.375v26.25a4.335,4.335,0,0,0,4.28,4.375h12.44a4.335,4.335,0,0,0,4.28-4.375v-26.25a4.335,4.335,0,0,0-4.28-4.375h-12.44Zm0,1.591h12.44a2.716,2.716,0,0,1,2.7,2.386h-17.84A2.716,2.716,0,0,1,1208.28,763.591Zm-2.72,3.977h17.88v22.273h-17.88V767.568Zm0,23.864h17.88v1.193a2.73,2.73,0,0,1-2.72,2.784h-12.44a2.73,2.73,0,0,1-2.72-2.784v-1.193Zm6.22,1.193a0.8,0.8,0,0,0,0,1.591h5.44a0.8,0.8,0,0,0,0-1.591h-5.44Z" transform="translate(-1204 -762)"/>
</svg>
