<svg xmlns="http://www.w3.org/2000/svg" width="27" height="25" viewBox="0 0 27 25">
  <metadata><?xpacket begin="﻿" id="W5M0MpCehiHzreSzNTczkc9d"?>
<x:xmpmeta xmlns:x="adobe:ns:meta/" x:xmptk="Adobe XMP Core 5.6-c138 79.159824, 2016/09/14-01:09:01        ">
   <rdf:RDF xmlns:rdf="http://www.w3.org/1999/02/22-rdf-syntax-ns#">
      <rdf:Description rdf:about=""/>
   </rdf:RDF>
</x:xmpmeta>
                                                                                                    
                                                                                                    
                                                                                                    
                                                                                                    
                                                                                                    
                                                                                                    
                                                                                                    
                                                                                                    
                                                                                                    
                                                                                                    
                                                                                                    
                                                                                                    
                                                                                                    
                                                                                                    
                                                                                                    
                                                                                                    
                                                                                                    
                                                                                                    
                                                                                                    
                                                                                                    
                           
<?xpacket end="w"?></metadata>
<defs>
    <style>
      .cls-1 {
        fill: #fff;
        fill-rule: evenodd;
      }
    </style>
  </defs>
  <path id="Forme_1692" data-name="Forme 1692" class="cls-1" d="M1036.69,767.123a0.738,0.738,0,0,0-.67-0.082l-8.26,3.054-8.26-3.053h0c-0.02-.007-0.04-0.008-0.06-0.013a0.521,0.521,0,0,0-.11-0.027,4.051,4.051,0,0,0-.18,0,0.735,0.735,0,0,0-.11.027,0.251,0.251,0,0,0-.05.013h-0.01l-8.51,3.147a0.72,0.72,0,0,0-.47.67v20.425a0.728,0.728,0,0,0,.31.589,0.737,0.737,0,0,0,.42.127,0.712,0.712,0,0,0,.25-0.046l8.26-3.054,8.26,3.054,0.03,0.007,0.03,0.009a0.767,0.767,0,0,0,.2.029,0.7,0.7,0,0,0,.19-0.029,0.248,0.248,0,0,1,.04-0.009,0.041,0.041,0,0,1,.02-0.007l8.52-3.149a0.718,0.718,0,0,0,.47-0.669V767.711A0.723,0.723,0,0,0,1036.69,767.123Zm-25.24,4.232,7.07-2.612v18.9l-7.07,2.612v-18.9Zm8.52-2.612,7.06,2.612v18.9l-7.06-2.612v-18.9Zm15.58,18.9-7.07,2.612v-18.9l7.07-2.612v18.9Z" transform="translate(-1010 -767)"/>
</svg>
