<svg xmlns="http://www.w3.org/2000/svg" width="31" height="31" viewBox="0 0 31 31">
  <metadata><?xpacket begin="﻿" id="W5M0MpCehiHzreSzNTczkc9d"?>
<x:xmpmeta xmlns:x="adobe:ns:meta/" x:xmptk="Adobe XMP Core 5.6-c138 79.159824, 2016/09/14-01:09:01        ">
   <rdf:RDF xmlns:rdf="http://www.w3.org/1999/02/22-rdf-syntax-ns#">
      <rdf:Description rdf:about=""/>
   </rdf:RDF>
</x:xmpmeta>
                                                                                                    
                                                                                                    
                                                                                                    
                                                                                                    
                                                                                                    
                                                                                                    
                                                                                                    
                                                                                                    
                                                                                                    
                                                                                                    
                                                                                                    
                                                                                                    
                                                                                                    
                                                                                                    
                                                                                                    
                                                                                                    
                                                                                                    
                                                                                                    
                                                                                                    
                                                                                                    
                           
<?xpacket end="w"?></metadata>
<defs>
    <style>
      .cls-1 {
        fill: #fff;
        fill-rule: evenodd;
      }
    </style>
  </defs>
  <path id="Forme_1690" data-name="Forme 1690" class="cls-1" d="M830.5,794a15.5,15.5,0,1,1,15.5-15.5V778.5A15.516,15.516,0,0,1,830.5,794Zm0-28.878a13.383,13.383,0,1,0,13.379,13.388v0A13.4,13.4,0,0,0,830.5,765.118Zm-2.409,21.658a1.058,1.058,0,0,1-1.058-1.058v-15.5h4.656a4.668,4.668,0,1,1,0,9.336h-2.54v6.159A1.058,1.058,0,0,1,828.093,786.776Zm1.058-9.337h2.54a2.552,2.552,0,1,0,0-5.1h-2.54v5.1Z" transform="translate(-815 -763)"/>
</svg>
