<svg xmlns="http://www.w3.org/2000/svg" width="24" height="35" viewBox="0 0 24 35">
  <metadata><?xpacket begin="﻿" id="W5M0MpCehiHzreSzNTczkc9d"?>
<x:xmpmeta xmlns:x="adobe:ns:meta/" x:xmptk="Adobe XMP Core 5.6-c138 79.159824, 2016/09/14-01:09:01        ">
   <rdf:RDF xmlns:rdf="http://www.w3.org/1999/02/22-rdf-syntax-ns#">
      <rdf:Description rdf:about=""/>
   </rdf:RDF>
</x:xmpmeta>
                                                                                                    
                                                                                                    
                                                                                                    
                                                                                                    
                                                                                                    
                                                                                                    
                                                                                                    
                                                                                                    
                                                                                                    
                                                                                                    
                                                                                                    
                                                                                                    
                                                                                                    
                                                                                                    
                                                                                                    
                                                                                                    
                                                                                                    
                                                                                                    
                                                                                                    
                                                                                                    
                           
<?xpacket end="w"?></metadata>
<defs>
    <style>
      .cls-1 {
        fill: #fff;
        fill-rule: evenodd;
      }
    </style>
  </defs>
  <path id="Forme_1691" data-name="Forme 1691" class="cls-1" d="M638.143,798V784.875H630.86a0.845,0.845,0,0,1-.655-0.3l-3-3.5a0.911,0.911,0,0,1,0-1.148l3-3.5a0.845,0.845,0,0,1,.655-0.3h7.283v-1.75h-6.854a0.866,0.866,0,0,1-.857-0.875v-7a0.866,0.866,0,0,1,.857-0.875h6.854v-1.75a0.857,0.857,0,1,1,1.713,0v1.75h7.282a0.847,0.847,0,0,1,.656.3l3,3.5a0.911,0.911,0,0,1,0,1.148l-3,3.5a0.847,0.847,0,0,1-.656.3h-7.282v1.75h6.854a0.866,0.866,0,0,1,.857.875v7a0.866,0.866,0,0,1-.857.875h-6.854V798h-1.713Zm8.607-30.625h-14.6v5.25h14.6L649,770Zm-0.9,10.5h-14.6L629,780.5l2.249,2.625h14.6v-5.25Z" transform="translate(-627 -763)"/>
</svg>
