<svg xmlns="http://www.w3.org/2000/svg" width="15.03" height="33.031" viewBox="0 0 15.03 33.031">
  <defs>
    <style>
      .cls-1 {
        fill: #fff;
        fill-rule: evenodd;
      }
    </style>
  </defs>
  <path id="ico-effeil" class="cls-1" d="M1009.02,165.9l0.01,0.02v0.29c0.33,17.727,2.82,22.243,2.82,22.243h0.6v1.534c0.69,2.195,3.57,6.035,3.57,6.035h-3.42s-1.2-3.966-4.08-4h-0.03c-2.88.03-4.08,4-4.08,4h-3.42s2.88-3.84,3.57-6.035V188.45h0.6s2.49-4.516,2.82-22.243v-0.293a0.99,0.99,0,0,1-.37-0.772,0.945,0.945,0,0,1,.65-0.924v-0.013a3.045,3.045,0,0,1,.24-1.208,3.37,3.37,0,0,1,.23,1.225,0.945,0.945,0,0,1,.63.92A0.975,0.975,0,0,1,1009.02,165.9Zm-0.5,22.488h1.34a24.685,24.685,0,0,1-.67-3.652h-1.34a23.885,23.885,0,0,1-.66,3.652h1.33Z" transform="translate(-1001 -163)"/>
</svg>
